# xmcd
#
# Track frame offsets:
#	150
#	16860
#	27735
#	45332
#	56615
#	71982
#	85820
#	101647
#	118215
#	134260
#	144157
#	164755
#	181215
#	196610
#	212777
#	225422
#	241040
#	257520
#	270872
#	285185
#	304200
#	316577
#
# Disc length: 4521 seconds
# Revision: 2
# Processed by: cddbd v1.5.2PL0 Copyright (c) Steve Scherf et al.
# Submitted via: dBpowerAMP V12.0
#
DISCID=2411a716
DTITLE=Various Artist - CDX, Vol. 117 (1995)
DYEAR=1995
DGENRE=Country
TTITLE0=Confederate Railroad - Bill's Laundromat, Bar and Grill
TTITLE1=Doug Stone - Born In The Dark
TTITLE2=Philip Claypool - Feel Like Makin' Love
TTITLE3=4 Runner - Home Alone
TTITLE4=David Ball - Honky Tonk Healin'
TTITLE5=Brett James - If I Could See Love
TTITLE6=Helen Darling - I Haven't Found It Yet
TTITLE7=Bobbie Cryner - I Just Can't Stand To Be Unhappy
TTITLE8=Alabama - In Pictures
TTITLE9=The Hutchens - Knock, Knock
TTITLE10=Reba McEntire - On My Own
TTITLE11=Charlie Daniels - Same Ol' Me
TTITLE12=Kim Richey - Those Words We Said
TTITLE13=Mark Chesnutt - Trouble
TTITLE14=Clay Walker - Who Needs You Baby
TTITLE15=Billy Joe Shaver - Honky Tonk Heroes
TTITLE16=Kris Kristofferson - Good Love (Shouldn't Feel So Bad)
TTITLE17=Willie Nelson - Smoke, Smoke, Smoke That Cigarette
TTITLE18=Collin Raye - What If Jesus Comes Back Like That
TTITLE19=Lari Whire - Amazing Grace
TTITLE20=Doug Stone - Born In The Dark
TTITLE21=Lorrie Morgan - Interview
EXTD=
EXTT0=
EXTT1=
EXTT2=
EXTT3=
EXTT4=
EXTT5=
EXTT6=
EXTT7=
EXTT8=
EXTT9=
EXTT10=
EXTT11=
EXTT12=
EXTT13=
EXTT14=
EXTT15=
EXTT16=
EXTT17=
EXTT18=
EXTT19=
EXTT20=
EXTT21=
PLAYORDER=
